<svg fill="none" height="193" viewBox="0 0 178 193" width="178" xmlns="http://www.w3.org/2000/svg"><path d="m89.046 128.701c-.084.003-.168.009-.252.01-1.177.01-2.337-.29-3.362-.869l-23.629-13.347c-.681-.383-1.249-.94-1.646-1.613-.397-.674-.61-1.44-.618-2.221v-27.14c-.003-.29.01-.577.036-.86.072-.74.256-1.445.532-2.104l-6.38-3.928-7.469-4.184c-.7 1.467-1.042 3.133-1.025 4.86v40.488c.011 1.166.329 2.309.922 3.313.593 1.005 1.44 1.835 2.456 2.408l35.251 19.911c1.53.864 3.26 1.311 5.016 1.296.063 0 .125-.006.188-.007-.01-5.162-.02-8.838-.02-8.838z" fill="#4285f4"/><path d="m126.554 67.843-33.548-18.948c-1.534-.867-3.269-1.314-5.03-1.297-1.762.017-3.488.497-5.005 1.393l-33.186 19.577c-1.596.943-2.768 2.291-3.523 3.87l-.003.007 7.469 4.184 6.38 3.928c.042-.099.075-.202.12-.298.064-.133.132-.262.204-.39.144-.254.305-.498.485-.73.459-.593 1.027-1.094 1.674-1.475l22.244-13.122c.471-.277.975-.496 1.499-.651.742-.223 1.517-.315 2.29-.273 1.033.057 2.038.351 2.938.86l22.488 12.7c.754.428 1.43.98 1.998 1.634.188.216.363.444.525.681.072.106.139.215.205.324l5.737-3.837 7.814-4.667-.011-.017c-.958-1.413-2.268-2.607-3.764-3.453zm-9.775 11.974c.094.156.184.315.266.478.069.138.134.278.193.42.119.285.218.578.293.877.114.448.177.91.182 1.38l-.001 25.825c.008.989-.202 1.966-.614 2.865-.079.173-.162.343-.255.508-.581 1.028-1.422 1.885-2.439 2.485l-22.244 13.124c-.947.558-2.016.874-3.113.921v7.175s.01 3.677.02 8.839c1.674-.045 3.339-.5 4.831-1.382l33.185-19.58c1.517-.895 2.772-2.174 3.638-3.708.867-1.534 1.314-3.269 1.297-5.03l.001-38.53c-.019-1.86-.651-3.64-1.689-5.171l-7.815 4.666z" fill="#4285f4"/><g stroke="#4285f4" stroke-width="3.465"><path d="m46.262 72.438c.755-1.579 1.928-2.927 3.524-3.87l33.186-19.578c1.516-.896 3.242-1.377 5.004-1.394 1.761-.017 3.496.43 5.03 1.297l33.549 18.95c1.495.845 2.805 2.039 3.764 3.452l.011.017 27.116-16.195c-1.582-2.332-3.744-4.303-6.213-5.699l-55.377-31.276c-2.532-1.43-5.395-2.17-8.303-2.141-2.908.028-5.757.821-8.26 2.3l-54.779 32.314c-2.635 1.557-4.57 3.782-5.817 6.389l27.561 15.44.003-.006zm42.805 72.276c-.063.001-.125.006-.188.007-1.757.015-3.486-.432-5.016-1.296l-35.251-19.911c-1.016-.573-1.863-1.403-2.456-2.408-.593-1.004-.91-2.147-.922-3.313v-40.487c-.017-1.728.324-3.394 1.025-4.862l-27.561-15.44c-1.16 2.425-1.726 5.178-1.697 8.035v66.829c.039 3.917 2.16 7.521 5.576 9.444l58.187 32.867c2.525 1.425 5.38 2.163 8.279 2.139v-.047c.066-4.168.045-20.98.024-31.557z"/><path d="m157.445 55.119-27.116 16.194c1.038 1.53 1.67 3.312 1.689 5.171l-.001 38.53c.017 1.761-.43 3.496-1.297 5.03-.866 1.534-2.121 2.813-3.638 3.708l-33.185 19.58c-1.492.882-3.157 1.337-4.83 1.382.02 10.577.04 27.389-.024 31.557l-.001.047c2.867-.024 5.73-.783 8.285-2.293l54.778-32.32c2.504-1.478 4.575-3.589 6.005-6.121 1.429-2.532 2.168-5.395 2.14-8.303l.001-63.598c-.03-3.08-1.08-6.032-2.806-8.564z"/><path d="m89.043 176.318c-2.9.024-5.754-.714-8.279-2.14l-58.187-32.866c-3.416-1.923-5.537-5.527-5.575-9.443l-.002-66.83c-.028-2.857.537-5.61 1.697-8.035 1.247-2.607 3.182-4.832 5.817-6.389l54.777-32.314c2.504-1.479 5.353-2.272 8.26-2.3 2.909-.028 5.772.71 8.304 2.14l55.377 31.278c2.469 1.396 4.631 3.367 6.213 5.7 1.725 2.532 2.776 5.483 2.806 8.564l-.001 63.598c.027 2.908-.711 5.771-2.141 8.303-1.429 2.532-3.5 4.643-6.004 6.121l-54.778 32.319c-2.556 1.511-5.419 2.27-8.285 2.294z"/></g></svg>