<?xml version="1.0" encoding="UTF-8"?>
<svg version="1.1" xmlns="http://www.w3.org/2000/svg" x="0" y="0" width="768" height="768" viewBox="0, 0, 1024, 1024">
  <g id="Layer_1">
    <path d="M511.998,77.675 C513.084,146.637 603.801,291.108 673.051,366.682 C681.7,362.343 711.192,343.676 717.465,336.309 C752.133,356.726 778.531,399.775 796.059,432.749 C772.196,453.056 752.416,487.987 764.403,516.936 C775.15,542.695 795.419,558.524 828.47,556.097 C835.192,593.603 835.192,632.016 828.47,669.525 C797.237,667.005 767.947,684.917 755.955,713.862 C743.968,742.803 752.009,776.157 775.86,796.464 C754.094,827.74 726.94,854.905 695.669,876.678 C675.365,852.827 641.996,844.775 613.059,856.762 C584.114,868.75 566.206,898.036 568.718,929.261 C549.962,932.627 530.98,934.297 511.999,934.297 C493.017,934.297 474.035,932.627 455.279,929.261 C457.791,898.036 439.883,868.75 410.938,856.762 C382.001,844.775 348.632,852.827 328.328,876.678 C297.057,854.905 269.903,827.74 248.137,796.464 C271.988,776.157 280.029,742.803 268.042,713.862 C256.05,684.917 226.76,667.005 195.527,669.525 C188.809,632.02 188.809,593.607 195.527,556.097 C228.578,558.524 248.847,542.699 259.594,516.936 C271.581,487.987 251.801,453.056 227.942,432.749 C245.466,399.775 271.864,356.726 306.532,336.309 C312.805,343.676 342.301,362.343 350.946,366.682 C420.196,291.108 510.913,146.635 511.999,77.675 z M511.998,216.934 C510.529,308.717 317.69,450.695 317.604,592.905 C317.508,735.875 404.642,803.241 511.998,803.241 C619.355,803.241 706.482,735.875 706.392,592.905 C706.295,450.695 513.468,308.717 511.998,216.934 z" fill="#FFFFFF"/>
    <path d="M400.722,436.532 C374.262,496.059 353.959,561.009 361.91,626.588 C367.435,670.432 385.397,715.684 420.723,744.447 C461.462,775.536 516.872,781.77 565.124,768.67 C600.218,758.718 631.443,734.336 648.246,701.917 C651.425,698.335 643.419,700.498 641.574,699.428 C569.742,692.372 499.073,656.033 458.446,595.239 C424.969,547.456 407.022,489.887 402.765,431.973 C402.087,433.493 401.401,435.012 400.722,436.532" fill="#FFFFFF"/>
  </g>
</svg>
