<?xml version="1.0" encoding="UTF-8" standalone="no"?>
<svg xmlns:xlink="http://www.w3.org/1999/xlink" width="1024" height="1024" viewBox="0 0 768 768" version="1.1"
     xmlns="http://www.w3.org/2000/svg">
    <defs>
        <linearGradient id="background-gradient">
            <!-- You can place a gradient here -->
            <stop id="stop1" style="stop-color:white;stop-opacity:1" offset="0"/>
            <stop id="stop2" style="stop-color:white;stop-opacity:1" offset="1"/>
        </linearGradient>
        <linearGradient xlink:href="#background-gradient"
                        id="background-gradient-2"
                        x1="-641.09967"
                        y1="190.24055"
                        x2="-72.577332"
                        y2="768.65979"
                        gradientUnits="userSpaceOnUse"
                        gradientTransform="matrix(1.6885881,0,0,1.6596959,500.95503,-719.02441)"/>
        <filter id="shadowblur"
                x="-0.034951456"
                y="-0.034951456"
                width="1.0699029"
                height="1.0699029">
            <feGaussianBlur stdDeviation="12"/>
        </filter>
        <clipPath clipPathUnits="userSpaceOnUse" id="clip-path" shape-rendering="geometricPrecision">
            <path d="M 100 724.005 L 100 300.005 C 100 185.006 170 100 300.026 100.005 L 724 100 C 854 100.005 924 185.006 924 300.005 L 924 724.005 C 924 839.006 854 924 724 924.005 L 300.026 924.005 C 170 924.005 100 839.006 100 724.005 Z"
                  fill="#ffffff"
                  id="path11438"
                  transform="matrix(0.9375,0,0,0.9375,-581.59827,-403.28293)"
                  style="stroke-width:1.09095"/>
        </clipPath>

        <clipPath id="b-3">
            <path transform="matrix(1,0,0,-1,0,960)" d="M 0,960 H 960 V 0 H 0 Z"/>
        </clipPath>
    </defs>
    <g id="primary" style="display:inline">
        <g id="flat" transform="matrix(0.8,0,0,0.8,465.27862,322.62635)">
            <rect style="fill:url(#background-gradient-2);fill-opacity:1;fill-rule:evenodd;stroke-width:1.25556"
                  width="960"
                  height="960"
                  x="-581.59827"
                  y="-403.28293"/>
        </g>

        <g id="rounded">
            <path d="m 924,355.412 c 0,-9.782 0,-18.35 -0.056,-28.133 -0.049,-8.241 -0.144,-16.48 -0.368,-24.716 -0.484,-17.954 -1.543,-36.061 -4.736,-53.813 -3.238,-18.01 -8.526,-34.77 -16.859,-51.133 a 171.963,171.963 0 0 0 -31.661,-43.559 172.06,172.06 0 0 0 -43.574,-31.64 c -16.381,-8.335 -33.159,-13.621 -51.188,-16.858 -17.755,-3.188 -35.867,-4.245 -53.82,-4.73 -8.243,-0.223 -16.485,-0.317 -24.73,-0.368 -9.788,-0.06 -19.576,-0.055 -29.364,-0.055 L 553.997,100 h -84.999 l -111.637,0.407 c -9.807,0 -19.614,-0.005 -29.421,0.055 -8.262,0.051 -16.52,0.145 -24.778,0.368 -17.995,0.485 -36.148,1.543 -53.945,4.735 -18.053,3.236 -34.857,8.52 -51.259,16.849 a 172.405,172.405 0 0 0 -43.667,31.644 171.994,171.994 0 0 0 -31.718,43.551 c -8.356,16.372 -13.654,33.143 -16.9,51.162 -3.196,17.746 -4.255,35.846 -4.742,53.792 -0.222,8.237 -0.318,16.476 -0.368,24.716 -0.06,9.784 -0.563,21.937 -0.563,31.72 v 195.999 l 0.508,112.429 c 0,9.796 -0.004,19.592 0.055,29.388 0.05,8.252 0.146,16.502 0.369,24.751 0.486,17.976 1.547,36.109 4.746,53.886 3.245,18.032 8.542,34.818 16.891,51.201 a 172.24,172.24 0 0 0 31.722,43.619 172.444,172.444 0 0 0 43.659,31.684 c 16.412,8.346 33.224,13.639 51.288,16.88 17.789,3.193 35.936,4.252 53.924,4.737 8.258,0.223 16.517,0.318 24.779,0.368 9.807,0.059 19.613,0.059 29.42,0.059 h 310.283 c 9.788,0 19.576,0 29.364,-0.059 8.245,-0.05 16.487,-0.145 24.73,-0.368 17.96,-0.486 36.078,-1.546 53.841,-4.741 18.018,-3.241 34.788,-8.532 51.159,-16.873 a 172.004,172.004 0 0 0 43.582,-31.687 172.23,172.23 0 0 0 31.659,-43.612 c 8.337,-16.391 13.625,-33.184 16.865,-51.229 3.19,-17.77 4.248,-35.896 4.733,-53.865 0.223,-8.25 0.318,-16.5 0.367,-24.751 C 924,687.019 924,677.223 924,667.427 Z"
                  fill="black"
                  fill-opacity="0.3"
                  transform="matrix(0.75,0,0,0.75,2.777138,5.422196)"
                  style="filter:url(#shadowblur)"
                  id="shadow-path"
            />

            <g id="g11380" transform="matrix(0.8,0,0,0.8,465.27862,322.62635)" clip-path="url(#clip-path)">
                <rect style="fill:url(#background-gradient-2);fill-opacity:1;fill-rule:evenodd;stroke-width:1.25556"
                      width="960"
                      height="960"
                      x="-581.59827"
                      y="-403.28293"/>
            </g>
        </g>

        <g id="content">
            <!-- CONTENT GOES HERE -->
        </g>
    </g>
</svg>
